<svg xmlns="http://www.w3.org/2000/svg" width="24" height="32" fill="none" viewBox="0 0 24 32">
    <path fill="#222" d="M23.7 27.638L21.996 8.91C21.95 8.394 21.517 8 21 8h-3V6c0-1.608-.622-3.118-1.752-4.248C15.117.622 13.607 0 12 0 8.691 0 6 2.692 6 6v2H3c-.518 0-.95.394-.996.91L.301 27.638c-.102 1.116.274 2.232 1.03 3.06C2.087 31.526 3.163 32 4.285 32h15.43c1.122 0 2.198-.474 2.954-1.302.756-.828 1.13-1.944 1.03-3.06zM8 6c0-2.206 1.793-4 4-4 1.073 0 2.08.414 2.833 1.166C15.587 3.918 16 4.926 16 6v2H8V6zM21.19 29.35c-.384.418-.908.65-1.478.65H4.285c-.568 0-1.094-.232-1.476-.652-.384-.42-.566-.962-.514-1.53L3.913 10H6v3c0 .552.448 1 1 1s1-.448 1-1v-3h8v3c0 .552.448 1 1 1s1-.448 1-1v-3h2.086l1.62 17.82c.052.566-.13 1.11-.514 1.53z"/>
</svg>
