<svg xmlns="http://www.w3.org/2000/svg" width="781.36" height="119.48" viewBox="0 0 781.36 119.48">
<title>silmaasema_logo</title>
<polygon points="491.11 25.25 491.11 25.25 516.36 119.48 535.21 114.43 610.6 94.23 605.55 75.39 530.16 95.58 525.11 76.74 600.49 56.54 595.44 37.69 520.06 57.9 515.01 39.05 590.4 18.85 585.34 0 491.11 25.25" fill="#9b5ba5"></polygon><rect x="73.89" y="29.68" width="16.37" height="74.43" fill="#9b5ba5"></rect>
<polygon points="108.86 29.68 125.23 29.68 125.23 89.22 162.34 89.22 162.34 104.1 108.86 104.1 108.86 29.68" fill="#9b5ba5"></polygon>
<polygon points="174.66 29.68 192.31 29.68 211.88 61.15 231.44 29.68 249.09 29.68 249.09 104.1 232.82 104.1 232.82 55.52 211.88 87.3 211.45 87.3 190.72 55.83 190.72 104.1 174.66 104.1 174.66 29.68" fill="#9b5ba5"></polygon>
  <path d="M303.62,9.48h15.52V23.83H303.62ZM309.68,73l-9.89-24.13L289.9,73ZM280.87,9.48h15.52V23.83H280.87Zm11.58,19.67h15.1l31.9,74.95H322.33l-6.8-16.69H284.06l-6.81,16.69H260.56Z" fill="#9b5ba5"></path>
  <path d="M389.41,73l-9.89-24.13L369.63,73Zm-17.22-43.8h15.09l31.9,74.95H402.06l-6.8-16.69H363.79L357,104.1H340.29Z" fill="#9b5ba5"></path><polygon points="621.51 29.68 639.16 29.68 658.72 61.15 678.29 29.68 695.93 29.68 695.93 104.1 679.67 104.1 679.67 55.52 658.72 87.3 658.3 87.3 637.57 55.83 637.57 104.1 621.51 104.1 621.51 29.68" fill="#9b5ba5"></polygon>
  <path d="M741.7,48.82,751.59,73H731.82Zm-7.33-19.67-31.9,74.95h16.69L726,87.41h31.47l6.8,16.69h17.12l-31.9-74.95Z" fill="#9b5ba5"></path>
  <path d="M0,93.26,9.68,81.67c6.69,5.53,13.71,9,22.22,9,6.69,0,10.73-2.66,10.73-7v-.21c0-4.15-2.55-6.28-15-9.46C12.65,70.19,3,66,3,51.26v-.21C3,37.55,13.82,28.62,29,28.62a43.08,43.08,0,0,1,27.64,9.46L48.16,50.41c-6.59-4.57-13.08-7.33-19.35-7.33S19.24,46,19.24,49.56v.21c0,4.89,3.19,6.49,16.06,9.78,15.09,3.94,23.6,9.36,23.6,22.33v.21c0,14.78-11.27,23.07-27.32,23.07A47.38,47.38,0,0,1,0,93.26" fill="#9b5ba5"></path>
  <path d="M422,93.26l9.68-11.59c6.69,5.53,13.71,9,22.22,9,6.69,0,10.73-2.66,10.73-7v-.21c0-4.15-2.55-6.28-15-9.46-15-3.83-24.66-8-24.66-22.76v-.21c0-13.5,10.84-22.43,26-22.43a43.09,43.09,0,0,1,27.65,9.46l-8.51,12.33c-6.59-4.57-13.08-7.33-19.35-7.33s-9.57,2.87-9.57,6.48v.21c0,4.89,3.19,6.49,16.06,9.78,15.09,3.94,23.6,9.36,23.6,22.33v.21c0,14.78-11.27,23.07-27.32,23.07A47.38,47.38,0,0,1,422,93.26" fill="#9b5ba5"></path>
</svg>